<svg width="19.047668" height="16.666626" viewBox="0 0 19.0477 16.6666" fill="none" xmlns="http://www.w3.org/2000/svg" xmlns:xlink="http://www.w3.org/1999/xlink">
	<desc>
			Created with Pixso.
	</desc>
	<defs/>
	<path id="Vector" d="M19.04 5.95L15.81 5.95L12.41 0.28C12.24 0 11.88 -0.09 11.59 0.08C11.31 0.25 11.22 0.61 11.39 0.9L14.42 5.95L4.62 5.95L7.65 0.9C7.82 0.61 7.73 0.25 7.44 0.08C7.16 -0.09 6.8 0 6.63 0.28L3.23 5.95L0 5.95L0 7.14L1.29 7.14L2.8 15.2C2.96 16.05 3.7 16.66 4.55 16.66L14.48 16.66C15.34 16.66 16.08 16.05 16.24 15.21L17.75 7.14L19.04 7.14L19.04 5.95ZM15.07 14.99C15.02 15.27 14.77 15.47 14.48 15.47L4.55 15.47C4.27 15.47 4.02 15.27 3.97 14.99L2.5 7.14L16.54 7.14L15.07 14.99Z" fill="#FFFFFF" fill-opacity="1.000000" fill-rule="evenodd"/>
</svg>
