<svg width="47.000000" height="49.000000" viewBox="0 0 47 49" fill="none" xmlns="http://www.w3.org/2000/svg" xmlns:xlink="http://www.w3.org/1999/xlink">
	<desc>
			Created with Pixso.
	</desc>
	<defs/>
	<path id="V" d="M21.15 49L6.03 6.23C5.63 5.09 5.21 4.23 4.76 3.63C4.36 3.04 3.79 2.64 3.05 2.45C2.35 2.25 1.34 2.15 0 2.15L0 0L17.87 0L17.87 2.15L14.22 2.15C13.38 2.15 12.86 2.37 12.66 2.82C12.46 3.21 12.51 3.86 12.81 4.75L25.25 40.61L25.47 40.68L37.83 4.9C38.08 3.95 38.13 3.26 37.98 2.82C37.83 2.37 37.29 2.15 36.34 2.15L32.77 2.15L32.77 0L47 0L47 2.15C45.31 2.15 44.09 2.4 43.35 2.89C42.6 3.39 41.93 4.42 41.33 6.01L25.32 49L21.15 49Z" fill="#080111" fill-opacity="1.000000" fill-rule="evenodd"/>
</svg>
